<svg width="646" height="905" viewBox="0 0 646 905" fill="none" xmlns="http://www.w3.org/2000/svg">
<path opacity="0.07" d="M644.866 793.079C644.213 795.734 641.714 795.194 639.395 795.194C638.022 795.194 636.266 798.48 635.59 799.402C633.834 801.765 631.381 799.852 631.381 796.86C631.381 794.024 629.399 790.401 628.409 788.444C627.688 787.026 627.981 784.528 627.981 782.526C627.981 780.433 624.604 779.6 622.938 779.6C622.105 779.6 621.272 781.693 620.417 781.693C619.989 782.391 619.561 783.111 619.156 783.808C617.783 786.081 614.789 782.458 614.519 782.121C613.618 780.906 610.174 781.176 609.025 780.883C608.125 780.658 608.598 775.82 608.598 774.965C608.598 772.355 608.102 771.432 607.36 769.924C605.896 766.977 603.082 766.572 599.773 766.572C596.756 766.572 597.229 768.777 597.229 771.207C597.229 773.795 596.036 774.875 593.874 775.415C591.488 776.023 589.034 774.987 586.715 774.987C585.252 774.987 585.86 779.06 585.86 780.478C585.86 782.481 583.384 783.178 582.078 783.831C579.872 784.933 579.039 786.531 578.273 788.061C577.53 789.524 578.408 793.394 578.701 794.812C579.241 797.49 580.817 799.065 580.817 801.968C580.817 804.803 580.277 805.163 578.273 806.175C576.562 807.031 576.224 808.246 574.919 809.551C572.577 811.891 575.684 811.711 577.845 812.071C580.007 812.431 579.264 816.437 580.817 817.989C581.38 818.552 581.943 819.092 582.506 819.654C584.599 821.747 587.143 821.32 587.143 824.312C587.143 826.833 587.143 829.375 587.143 831.896C587.143 835.001 587.143 836.981 589.237 839.051C589.867 839.681 589.237 844.362 589.237 845.374C589.237 846.95 591.376 847.917 592.209 849.582C592.501 850.167 594.032 851.788 594.325 852.553C595.338 854.555 595.113 857.503 595.563 859.303C596.216 861.936 595.338 862.859 596.824 864.344C598.152 865.671 597.994 867.314 598.512 869.429C599.052 871.545 600.155 871.747 600.628 873.637C601.078 875.415 601.754 876.945 602.294 879.105C602.857 881.356 602.632 882.953 603.15 885.023C602.632 884.056 602.047 883.111 601.889 882.481C601.439 880.725 600.583 879.06 599.368 877.845C597.657 876.135 596.193 874.402 595.158 872.355C594.122 870.284 592.344 868.867 591.353 866.887C590.137 864.456 588.944 861.936 587.571 860.563C586.22 859.213 585.5 857.323 584.599 855.523C583.451 853.205 583.113 851.113 581.673 849.177C580.007 846.95 579.309 846.95 578.701 844.542C578.026 841.819 576.832 840.806 576.179 838.219C575.617 836.014 575.009 834.618 574.063 832.751C573.14 830.883 571.835 829.69 570.259 828.093C567.962 825.797 567.535 824.087 565.621 822.197C563.572 820.149 561.501 818.079 559.723 816.301C558.192 814.771 556.346 811.644 555.941 809.978C555.445 808.043 555.941 805.23 555.941 803.228V796.072C555.941 793.484 555.986 791.099 555.085 789.299C553.959 787.049 553.419 785.968 551.708 784.258C551.055 783.606 549.997 780.14 549.614 779.218C547.296 776.9 546.012 777.53 544.527 774.56C543.716 772.94 543.266 771.095 542.861 769.519C542.523 768.192 545.27 766.257 545.787 765.739C547.633 763.894 548.016 763.601 548.759 760.653C549.209 758.808 548.759 756.243 548.759 754.33C548.759 751.113 548.962 749.92 550.447 748.435C551.123 747.76 548.579 744.744 548.331 744.227C547.318 742.179 549.705 738.624 547.071 741.257C546.62 741.707 545.067 739.974 544.076 738.826C543.761 737.566 543.288 736.216 542.433 735.361C542.298 735.226 542.163 735.046 542.073 734.843C541.938 734.101 541.825 733.313 541.6 732.391C541.352 731.446 541.352 733.561 542.073 734.843C542.275 735.901 542.523 736.846 543.288 737.859C543.356 737.949 543.671 738.354 544.076 738.826C544.256 739.569 544.392 740.311 544.527 740.829C544.887 742.292 546.057 743.552 546.643 745.869C547.251 748.3 546.643 751.765 546.643 754.308C546.643 757.458 545.607 758.876 544.527 761.058C543.198 763.736 543.626 764.209 540.317 764.861C538.358 765.244 537.368 764.929 536.467 764.276C535.724 761.666 533.766 761.689 535.251 763.174C535.679 763.601 536.062 763.961 536.467 764.276C536.49 764.321 536.512 764.389 536.535 764.456C536.85 765.694 538.201 766.167 538.201 769.092C538.201 770.824 533.18 767.022 533.158 766.977C531.897 765.289 530.997 764.321 530.231 762.769C529.556 761.419 527.147 759.708 526.426 758.988C525.774 758.336 525.864 759.123 527.687 757.301C528.385 756.603 532.325 756.243 532.73 756.04C534.193 755.298 529.691 754.668 528.52 753.498C527.89 752.868 530.276 752.26 531.064 752.643C532.707 753.453 530.254 748.795 531.064 747.175C532.212 744.902 532.707 743.867 533.585 742.134C534.959 739.389 533.135 738.804 531.897 741.279C530.906 743.282 529.376 737.611 529.376 736.644C529.376 734.866 530.726 731.423 531.492 729.87C532.437 727.98 532.302 726.518 533.158 724.83C533.856 723.412 534.463 720.892 534.846 719.362C535.431 717.044 536.962 715.806 536.962 713.039V704.6C536.962 701.923 535.814 700.55 534.418 698.705C533.045 696.86 531.784 693.822 531.064 692.359C530.344 690.941 529.938 690.424 528.948 689.434C532.077 686.306 530.929 684.551 529.376 681.423C528.475 679.623 528.52 677.935 528.52 675.527C528.52 673.097 528.948 671.77 528.948 669.632C528.948 669.002 525.166 666.977 524.738 666.257C523.702 664.524 523.455 662.859 523.05 661.216C522.644 659.596 522.194 658.043 522.194 655.725C522.194 653.228 522.239 652.148 521.339 655.725C520.663 658.403 518.344 653.588 517.556 652.8C515.643 650.888 515.868 649.335 515.868 646.477C515.868 644.114 516.003 642.112 515.012 640.154C513.977 638.061 513.347 635.924 512.491 634.236C511.365 631.986 511.23 630.793 511.23 627.913C511.23 626.135 509.902 625.617 509.114 624.56C509.114 622.107 507.741 619.789 506.188 618.214C505.039 617.067 504.657 615.199 504.071 614.006C503.666 613.174 503.013 612.431 502.293 611.711C502.383 611.554 502.473 611.419 502.563 611.261C502.473 611.419 502.36 611.554 502.27 611.711C501.572 611.013 500.829 610.383 500.244 609.798C498.713 608.268 498.038 606.738 496.89 605.568C495.314 603.993 494.864 603.138 493.513 601.788C492.23 600.505 491.374 599.627 490.158 598.412C489.235 597.49 488.628 595.374 488.042 594.204C487.434 592.989 485.206 591.729 484.26 591.234C482.684 590.446 481.379 588.354 480.478 587.454C478.857 585.833 478.519 584.573 476.673 583.651C474.49 582.571 473.161 582.211 472.464 579.443C471.901 577.193 471.518 575.865 470.775 574.357C469.83 572.467 469.469 571.792 467.421 569.722C467.151 569.452 467.421 567.224 467.421 566.752C466.092 565.424 465.304 570.577 466.16 572.242C467.151 574.222 468.254 573.682 468.254 576.878C468.254 580.005 465.304 578.498 464.899 576.878C464.381 574.807 463.233 574.02 461.117 573.502C460.352 573.322 459.744 573.232 459.204 573.142C458.821 572.76 458.461 572.422 458.168 572.265C457.425 571.882 453.733 569.519 455.624 571.41C456.907 572.692 457.808 572.872 459.204 573.12C460.014 573.975 460.892 575.122 461.117 575.595C462.648 578.633 459.699 578.565 457.74 578.565C455.489 578.565 453.103 578.565 451.414 578.993C449.748 579.42 449.23 581.896 448.893 583.201C448.645 584.236 444.728 584.888 443.4 584.888C442.094 584.888 440.766 585.158 439.618 585.743C439.167 585.968 440.18 586.599 440.473 587.004C439.933 587.274 445.043 589.839 446.799 593.327C447.632 595.014 447.092 597.287 448.06 599.222C449.478 602.035 448.397 604.128 445.944 605.118C443.872 605.951 442.432 607.953 440.473 608.921C438.897 609.708 436.601 609.776 434.575 609.776C431.918 609.776 430.86 611.689 429.915 613.556C428.699 615.987 429.554 616.527 426.132 616.527C423.341 616.527 422.035 618.327 419.806 616.099C418.163 614.456 416.632 613.309 415.169 611.869C413.638 610.338 412.917 609.663 411.792 608.516C410.531 607.256 408.01 605.14 406.749 603.858C404.633 601.743 403.147 600.64 400.851 598.817C399.117 597.445 396.191 596.387 394.952 595.464C393.376 594.294 391.688 592.967 389.91 592.089C388.199 591.234 386.645 590.491 385.272 589.119C383.133 586.981 381.467 586.419 381.467 583.223C381.467 580.388 380.837 579.038 379.779 576.9C378.833 575.01 376.897 573.052 375.997 571.86C374.713 570.149 374.173 567.629 372.62 565.536C371.382 563.894 369.738 562.791 369.265 560.879C368.838 559.146 366.789 557.571 365.483 555.838C363.817 553.61 362.196 552.125 360.823 548.682C359.63 545.712 358.257 547.04 359.968 543.597C361.183 541.144 360.823 541.707 358.302 541.077C355.6 540.401 353.304 539.209 351.143 538.106C349.004 537.026 346.257 536.554 345.672 538.961C345.559 539.389 348.374 542.314 348.599 542.764C349.567 544.677 350.287 546.095 351.143 547.805C351.953 549.425 352.403 551.765 352.403 553.7C352.403 556.626 349.882 555.118 353.642 557.931C356.456 560.046 351.345 561.711 357.446 561.711C359.878 561.711 360.846 563.961 362.917 565.514C365.281 567.292 365.033 568.439 365.033 571.41C365.033 573.952 361.251 573.097 359.135 573.097C356.861 573.097 359.36 573.165 360.373 575.19C361.273 576.968 361.521 578.453 362.917 579.848C364.042 580.973 363.885 584.528 364.177 585.743C364.74 588.016 365.528 589.749 366.271 591.211C367.509 593.687 368.32 595.262 369.243 597.107C370.076 598.75 373.993 598.952 375.569 599.222C375.794 599.672 375.772 605.118 375.997 605.973C376.74 608.898 378.788 610.023 381.04 612.296C382.931 614.186 383.831 616.347 385.272 617.787C387.411 619.924 388.739 619.024 389.482 621.995C390.225 624.942 389.482 629.15 389.482 632.121C389.482 634.663 388.311 635.113 387.793 637.161C387.073 639.996 386.825 643.574 386.105 646.432C385.655 648.277 386.105 650.842 386.105 652.755C386.105 655.005 386.105 657.256 386.105 659.506C386.105 662.229 384.506 664.681 384.011 666.662C383.471 668.822 382.75 669.137 381.895 670.87C380.634 673.39 380.026 674.087 379.351 676.788C378.811 678.925 378.473 679.96 376.424 680.996C375.614 681.401 373.723 679.825 371.382 680.996C369.761 681.806 368.748 683.876 368.41 685.203C367.644 688.264 368.477 688.691 365.483 689.434C362.827 690.086 360.733 688.151 359.99 691.122C359.292 693.867 357.581 691.347 357.063 690.266C355.983 688.084 355.082 687.476 354.52 685.181C354.069 683.336 354.52 680.77 354.52 678.858C354.52 675.91 354.79 674.807 356.636 672.962C357.626 671.95 357.063 667.697 357.063 666.212C357.063 663.354 357.784 662.994 359.607 661.171C361.048 659.731 361.656 657.953 362.129 656.086C362.579 654.285 362.557 652.238 362.557 650.19C362.557 648.862 363.862 646.319 364.245 644.722C364.875 642.224 365.371 640.716 365.933 638.399C366.429 636.441 365.933 633.673 365.933 631.648C365.933 629.083 366.091 626.36 365.506 624.065C364.83 621.365 363.367 619.407 362.129 616.909C361.679 616.009 361.161 615.086 360.44 614.366C358.955 612.881 360.44 618.574 360.44 620.689C360.44 623.367 360.44 626.022 360.44 628.7C360.44 631.333 359.968 633.291 359.63 635.023C359.292 636.756 357.063 638.444 355.825 639.681C354.272 641.257 354.137 642.967 354.137 645.577C354.137 649.357 352.336 650.933 349.927 652.733C348.329 653.925 347.338 654.848 345.717 655.658C344.501 656.266 342.61 660.158 341.912 661.576C340.944 663.511 340.089 666.077 339.391 667.472C338.22 669.834 335.834 671.905 334.731 673.367C333.065 675.595 332.052 676.405 330.093 677.575C328.45 678.565 324.195 679.983 324.623 682.233C324.96 684.011 319.017 683.943 320.413 686.013C321.989 688.354 319.197 692.269 319.152 692.337C318.882 691.639 318.589 690.941 318.297 690.244C317.621 688.534 317.869 686.329 317.869 684.348C317.869 682.413 319.602 681.716 320.413 680.118C321.088 678.79 318.499 682.458 317.441 683.493C316.09 684.843 315.392 686.238 314.92 688.534C314.492 690.694 314.492 692.764 314.064 694.429C313.749 695.667 311.926 697.872 311.093 699.515C310.215 701.248 310.732 703.475 310.237 705.41C309.697 707.616 308.909 709.348 308.143 710.879C307.468 712.251 305.419 714.434 304.339 715.514C302.898 716.954 302.425 717.967 300.557 718.889C298.801 719.767 296.189 719.317 294.231 719.317C291.642 719.317 290.516 720.217 288.76 718.462C287.522 717.224 285.878 717.292 284.528 715.491C283.424 714.029 283.312 712.589 282.006 711.284C281.083 710.361 277.571 710.518 276.536 710.023C275.838 709.663 274.802 706.581 274.419 705.815C273.744 704.488 274.419 701.023 274.419 699.492C274.419 697.287 277.796 696.432 279.057 696.117C281.939 695.397 280.903 694.699 281.601 691.909C282.231 689.344 282.119 688.331 283.289 685.991C284.01 684.573 280.25 686.914 279.485 687.679C278.247 688.916 278.629 691.099 278.629 693.147C278.629 695.644 274.082 693.237 273.586 692.719C272.281 691.414 271.785 690.424 271.042 688.939C270.029 686.936 270.345 686.036 268.521 685.136C266.743 684.258 267.26 689.771 267.26 690.626C267.26 691.347 268.949 693.507 268.949 695.667C268.949 698.795 269.151 699.042 265.977 699.042C263.321 699.042 263.343 697.22 262.195 696.072C261.565 695.442 261.114 691.819 260.934 691.032C260.371 688.781 260.957 686.846 260.079 685.113C259.066 683.088 258.39 683.066 258.39 680.073C258.39 677.958 258.39 675.865 258.39 673.75C258.39 672.265 255.824 670.599 255.464 669.114C254.473 665.176 253.348 667.472 253.348 670.352C253.348 672.467 253.348 674.582 253.348 676.698C253.348 678.453 249.723 679.465 249.138 680.05C247.607 681.581 250.421 683.471 250.826 685.091C251.276 686.936 250.984 690.109 251.254 691.437C251.659 693.462 254.18 691.279 254.18 695.217C254.18 697.67 254.608 698.975 254.608 701.54C254.608 703.655 254.608 705.748 254.608 707.863C254.608 709.348 249.971 709.978 249.138 710.406C247.066 711.441 247.179 712.746 245.333 714.614C243.464 716.482 240.875 715.244 239.862 714.209C238.196 712.544 237.071 712.229 235.653 710.833C234.73 709.911 233.604 709.213 232.681 708.291C231.488 707.098 234.032 711.419 234.797 712.949C236.553 716.482 232.501 716.729 230.159 716.729C228.764 716.729 226.062 713.849 225.117 713.376C223 712.319 222.595 710.631 220.456 709.573C218.138 708.426 221.605 714.906 223.428 716.729C225.094 718.394 228.178 719.812 229.326 720.959C230.317 721.95 229.574 725.482 229.326 726.428C228.899 728.115 225.004 727.688 223.428 727.688C220.839 727.688 219.151 728.048 217.53 726.428C215.841 724.74 218.701 721.792 218.385 720.532C217.98 718.889 214.941 717.022 214.153 715.446C213.162 713.466 210.393 713.354 210.371 713.354C208.615 712.926 212.464 716.279 213.725 717.562C215.121 718.957 214.581 722.152 214.581 724.312C214.581 726.495 214.513 728.678 215.008 730.635C215.706 733.403 214.828 733.133 211.654 732.323C208.682 731.581 208.007 729.173 207.422 726.855C206.971 725.01 207.422 722.445 207.422 720.532C207.422 718.417 207.422 716.324 207.422 714.209C207.422 712.094 207.422 709.978 207.422 707.863C207.422 705.613 207.422 703.363 207.422 701.113C207.422 699.357 208.187 697.085 208.682 696.072C209.988 693.439 209.876 691.437 208.255 691.032C205.215 690.266 205.215 691.482 204.472 688.489C204.022 686.711 203.617 685.406 203.617 683.021C203.617 680.163 205.418 679.06 204.045 676.27C203.955 676.09 203.189 681.221 203.189 682.166C203.189 685.563 203.437 686.419 199.835 685.518C196.841 684.776 199.7 690.334 199.835 690.604C200.87 692.652 201.884 693.867 203.189 696.5C204.315 698.75 202.852 703.138 201.929 704.083C200.398 705.613 198.462 704.668 197.291 707.008C196.413 708.763 196.863 711.779 196.863 713.781C196.863 716.482 197.426 717.337 198.552 718.822C200.263 721.095 196.706 724.447 196.008 725.145C194.162 726.99 192.473 727.148 190.537 728.115C188.466 729.15 186.102 730.433 185.067 731.468C183.333 733.201 180.857 726.585 180.857 725.572C180.857 723.322 180.857 721.072 180.857 718.822C180.857 716.302 181.937 713.556 182.523 711.239C183.04 709.191 183.783 707.818 183.783 705.343C183.783 703.228 183.783 701.135 183.783 699.02C183.783 696.905 183.783 694.789 183.783 692.674C183.783 690.019 183.333 688.826 182.523 687.206C182.23 686.621 181.284 691.842 181.284 692.674C181.284 696.23 178.605 691.279 177.908 690.581C176.669 689.344 175.206 686.824 174.553 685.496C172.617 681.603 172.437 682.188 172.437 686.351C172.437 688.804 173.833 691.099 174.981 692.247C176.332 693.597 177.592 694.992 178.335 696.477C179.348 698.502 180.136 700.46 181.307 702.8C182.072 704.33 181.307 708.178 181.307 709.956C181.307 712.544 180.969 713.849 180.451 715.851C179.911 718.012 178.898 719.092 178.335 721.342C177.57 724.425 177.908 724.425 177.908 720.914C177.908 719.137 175.093 717.652 174.125 716.684C172.032 714.591 171.829 714.344 171.154 711.644C170.298 708.223 170.613 709.551 169.893 712.499C169.398 714.456 169.893 717.517 170.321 719.249C170.906 721.612 171.964 724.627 173.292 727.26C175.071 730.815 175.138 732.233 172.437 733.583C170.028 734.776 168.925 735.136 170.748 736.936C173.698 739.884 173 739.299 169.893 741.167C169.713 741.279 169.555 741.392 169.353 741.482C166.584 740.739 163.837 739.996 161.113 739.164C161.068 738.601 161.046 737.971 161.046 737.364C161.046 735.068 161.901 733.628 161.901 731.041C161.901 728.925 161.901 726.833 161.901 724.717C161.901 722.062 161.361 720.397 159.785 718.822C158.569 717.607 159.47 713.376 159.785 712.071C160.438 709.438 159.965 706.716 160.64 704.06C160.663 703.948 160.663 703.925 160.663 703.858C160.37 704.848 159.357 708.763 159.357 710.383C159.357 712.409 158.074 714.614 157.241 716.279C156.453 717.854 155.958 719.294 154.719 720.937C153.977 721.927 147.966 716.954 146.705 716.707C146.435 716.662 146.255 716.459 146.142 716.166C146.165 715.109 146.12 714.186 145.917 713.849C146.007 712.364 146.277 710.721 146.277 709.956C146.277 707.526 146.12 705.861 145.422 704.488C144.566 702.755 144.994 699.807 144.994 697.737C144.994 696.432 142.315 699.627 142.067 700.662C141.617 702.508 142.067 705.073 142.067 706.986C142.067 710.046 143.981 711.891 145.849 713.759C145.872 713.781 145.894 713.804 145.917 713.849C145.872 714.771 145.917 715.626 146.142 716.166C146.097 717.854 145.849 719.879 145.849 720.509C145.849 722.535 147.921 723.682 149.654 724.717C152.176 726.225 153.008 727.508 153.008 730.613C153.008 733.718 150.555 733.201 148.799 731.468C147.02 729.69 145.107 726.945 143.711 725.572C141.64 723.502 141.324 722.062 139.073 720.937C135.876 719.339 139.073 718.147 139.073 715.446C139.073 713.444 138.983 710.924 138.645 709.551C137.902 706.603 137.115 706.536 136.124 704.083C135.381 702.238 137.632 701.72 139.478 699.852C141.009 698.322 142.292 696.657 143.688 694.812C144.656 693.529 144.116 690.581 144.116 688.916C144.116 686.486 143.958 684.821 143.26 683.448C142.495 681.918 140.717 679.578 139.906 677.958C139.006 676.18 140.401 673.21 140.762 672.49C141.865 670.307 144.161 671.072 144.971 667.854C144.994 667.787 142.045 666.617 142.045 664.051C142.045 661.396 142.18 660.001 140.784 658.583C139.186 656.986 138.848 655.41 137.407 653.948C135.651 652.193 130.924 654.105 134.481 650.572C135.921 649.132 129.303 646.365 135.336 646.365C135.944 646.365 133.512 643.259 132.364 642.134C130.563 640.334 130.676 640.064 130.676 636.666C130.676 634.348 131.104 632.593 131.104 630.343C131.104 629.578 129.64 628.858 129.438 628.655C129.438 627.103 132.815 626.608 131.959 623.187C131.374 620.869 130.811 619.474 129.438 618.102C128.335 616.999 128.177 614.816 127.749 613.061C127.051 610.316 128.199 608.876 126.489 607.166C123.9 604.578 124.778 602.125 126.916 600.01C128.74 598.187 120.815 596.41 124.372 592.854C126.466 590.761 126.489 590.041 126.489 586.531C126.489 585.856 121.648 580.838 121.018 580.208C120.162 579.353 121.558 576.563 121.873 575.978C119.825 573.93 123.877 570.735 124.8 570.509C127.051 569.947 126.489 568.102 126.489 565.469C126.489 563.084 126.263 561.239 125.633 559.978C125.115 558.966 122.256 558.718 121.423 557.886C120.41 556.873 119.622 552.755 119.307 551.54C118.699 549.087 116.786 549.447 115.097 549.875C113.409 550.302 114.467 545.239 114.669 544.384C115.187 542.337 115.863 540.897 116.358 538.916C116.808 537.071 116.358 534.506 116.358 532.593C116.358 530.163 116.245 527.598 116.786 525.437C117.033 524.425 121.153 523.142 121.828 522.467C123.067 521.23 123.539 519.024 124.35 517.427C125.34 515.469 126.489 515.086 128.582 514.051C130.991 512.836 130.743 514.186 131.509 511.126C131.892 509.596 126.624 510.496 125.611 510.699C122.594 511.306 120.883 508.336 118.857 507.323C117.033 506.401 114.152 506.896 112.103 506.896C108.974 506.896 109.109 503.273 108.321 506.468C107.6 509.348 108.974 511.081 106.205 509.011C103.391 506.896 101.162 511.171 101.162 506.086C101.162 504.825 97.4021 503.993 96.1189 502.71C94.3854 500.978 94.6106 499.74 93.575 497.67C91.9766 494.452 92.2693 495.104 95.6912 496.815C98.7079 498.322 98.2351 494.362 98.2351 492.584C98.2351 488.466 95.8938 489.906 100.329 488.804C101.027 488.624 100.757 483.043 100.757 482.053C100.757 479.983 100.824 477.62 101.184 476.158C101.319 475.572 101.815 475.527 102.04 475.302C102.265 474.402 105.394 477.238 105.394 471.072C105.394 467.787 105.574 467.967 102.873 467.292C101.522 466.954 101.297 470.217 99.901 470.217C99.0005 470.217 96.7268 467.044 96.1189 466.437C94.6556 464.974 92.9897 464.366 91.909 462.206C91.1886 460.766 90.063 459.528 88.9374 458.426C87.7667 457.256 86.7987 455.793 86.3934 454.218C85.8306 451.99 84.705 451.248 82.1836 451.248C80.1124 451.248 77.7486 451.315 76.2852 451.675C74.1465 452.215 76.5104 447.04 76.713 446.635C77.3659 445.329 75.0921 443.822 75.4523 442.404C75.9701 440.311 75.88 438.489 75.88 436.081C75.88 434.438 75.4523 431.603 75.4523 429.33C75.4523 427.125 75.9025 425.527 77.1407 424.29C78.2439 423.187 78.1088 419.992 78.4014 418.799C78.8517 416.954 78.4014 414.389 78.4014 412.476C78.4014 409.303 78.1313 411.621 82.1836 411.621C85.2003 411.621 86.2584 411.486 88.5096 410.361C90.3782 409.438 92.697 408.718 94.408 407.841C94.6556 407.706 94.9708 407.841 95.2634 407.841C96.209 407.841 97.9199 404.33 98.2351 404.038C100.779 404.038 98.055 398.907 98.6629 396.455C99.1581 394.429 101.004 394.609 101.589 392.247C101.927 390.852 97.7398 392.787 97.3796 391.392C96.9294 389.569 98.2351 386.734 98.6403 385.068C99.1131 383.201 98.5503 380.478 98.2126 379.173C97.5822 376.63 96.3215 377.215 95.2409 377.485C94.0703 377.778 94.3854 377.62 94.3854 374.11C94.3854 371.86 94.3854 369.609 94.3854 367.359C94.3854 365.064 97.1545 363.534 97.7623 361.036C98.3027 358.898 98.1901 356.851 98.6178 354.713C99.0681 352.485 98.2801 350.28 97.7623 349.245C96.6817 347.085 94.0252 346.702 91.4363 346.702C88.9599 346.702 87.0688 347.13 84.6825 347.13C82.1611 347.13 80.5176 347.58 78.7842 346.702C76.2852 345.442 77.0732 344.182 74.5518 345.442C73.6738 345.892 74.3717 347.445 74.124 348.412C73.6738 350.19 72.0078 345.397 71.1974 343.754C71.0623 343.484 70.9047 343.192 70.7696 342.899C69.7566 340.874 66.4697 341.414 64.4436 340.379C62.2824 339.299 60.9991 336.914 59.806 335.721C58.7254 334.641 54.9432 335.293 53.4799 335.293C51.1836 335.293 49.2925 336.149 46.7261 336.149C43.3942 336.149 42.3136 335.924 40.4 334.483C38.2163 332.841 37.8111 332.278 36.5954 329.825C35.6949 328.025 33.9839 327.215 32.8132 326.045C31.1473 324.38 29.1212 325.28 27.3427 323.502C25.6092 321.747 24.2134 320.825 22.6825 319.294C21.0166 317.629 18.8329 315.874 17.212 315.064C15.7486 314.321 13.7 311.981 12.5743 310.856C11.0435 309.326 10.143 307.886 9.60267 305.77C8.97231 303.228 7.84668 301.383 7.08125 299.875C5.97813 297.67 4.10957 295.239 2.44363 294.407C1.40805 293.889 1.70072 293.664 1.18292 293.147C0.214878 292.652 3.38917 286.801 3.70434 286.396C4.71742 285.046 6.13572 284.371 6.67602 282.188C7.26135 279.87 8.25191 279.285 8.79221 277.103C9.31 274.987 12.3717 275.482 14.2628 275.01C16.0413 274.56 14.713 270.757 16.3565 269.924C16.6266 269.789 16.8743 269.834 17.0544 269.969C17.0769 270.352 17.0994 270.757 17.1894 271.185C17.9999 274.425 18.09 270.712 17.0544 269.969C16.9868 268.192 17.6847 266.707 18.0449 265.289C18.4276 263.736 22.6825 267.202 22.6825 262.746C22.6825 260.586 22.0072 259.258 21.0166 257.278C20.5889 256.401 20.2512 255.748 19.981 255.118C20.0711 255.32 20.1611 255.523 20.2512 255.748C19.8009 254.825 19.5082 254.06 19.3281 253.07C19.103 251.923 20.814 251.923 22.2998 251.63C22.9527 251.495 23.5605 251.315 23.9432 250.955C25.6542 249.245 29.4363 249.695 31.9578 249.695C34.1415 249.695 34.8844 253.475 36.1676 254.735C36.9556 255.523 37.1582 258.673 37.4283 259.821C37.8786 261.599 41.3456 260.473 42.4712 261.914C44.3397 264.254 45.0151 261.891 45.0151 259.393C45.0151 256.783 44.8125 255.365 46.2758 253.903C48.8873 251.293 48.7297 250.122 52.6019 250.122C53.615 250.122 53.9076 251 53.9527 251.113C53.9527 250.955 53.8626 250.257 53.8626 248.435C53.8626 246.387 55.6186 244.182 57.217 243.394C59.1756 242.427 60.9991 241.324 61.4269 239.164C61.9897 236.374 60.3237 235.991 60.9991 233.268C61.607 230.838 60.5714 229.083 60.5714 226.945C60.5714 224.65 60.9991 223.502 60.9991 221.05C60.9991 219.047 61.0442 217.044 60.684 215.244C60.6389 215.064 60.6164 214.906 60.5714 214.749C60.3463 213.826 59.7609 212.634 59.3332 211.779C59.2431 211.374 59.3107 211.216 59.5358 211.194C60.1436 211.126 61.7871 212.319 63.363 213.129L63.3855 213.106C64.2184 213.534 65.0289 213.894 65.6367 213.894C67.3702 213.894 69.4639 213.489 71.1073 213.894C72.9309 214.344 75.0921 215.536 77.0057 216.009C79.1444 216.549 78.8742 217.562 81.2155 216.414C83.9621 215.041 84.0296 213.894 87.1139 213.894C89.23 213.894 91.3237 213.894 93.4399 213.894C96.0064 213.894 98.4828 213.669 100.599 214.749C103.053 215.986 103.413 216.977 106.925 217.674C109.672 218.214 109.424 219.587 111.563 218.529C112.261 218.169 115.367 215.379 116.223 214.749C116.966 214.186 120.703 216.977 121.266 217.269C124.665 218.979 126.894 219.204 127.592 216.414C128.312 213.489 122.841 213.489 128.852 213.489C131.441 213.489 130.518 211.104 130.518 208.831C130.518 205.635 132.837 205.05 135.606 205.05C139.456 205.05 136.867 202.62 135.606 201.675C134.21 200.617 132.229 200.235 130.946 199.582C129.28 198.75 126.489 199.447 125.048 198.727C123.202 197.805 121.873 195.127 120.41 193.687C118.542 191.819 116.898 194.249 115.367 191.144C114.557 189.501 112.598 187.566 111.157 186.486C110.369 185.901 110.414 184.416 110.752 182.953C111.045 181.671 111.585 180.388 111.968 179.735C112.958 178.07 112.396 174.897 112.396 172.985C112.396 170.869 111.54 169.609 110.302 168.349C108.546 166.594 110.482 164.456 107.758 165.806C104.854 167.269 104.831 167.652 104.831 170.892C104.831 172.715 99.5634 171.365 99.3382 171.32C96.9069 170.712 96.0739 172.467 94.7006 173.84C94.0478 174.492 89.0499 173.84 87.9468 173.84C86.1233 173.84 86.1008 170.689 85.0202 169.204C84.1647 168.079 81.5082 167.944 79.5271 167.944C76.2177 167.944 75.7449 167.089 74.4842 169.632C73.6963 171.185 73.9889 166.099 73.2235 164.546C72.3905 162.881 70.2969 162.454 69.0136 161.194C66.7174 158.898 69.6215 158.381 65.6593 157.391C63.363 156.828 61.7195 154.623 60.9991 153.183C60.0536 151.293 61.8996 148.772 62.2598 147.287C62.8001 145.149 59.3332 143.912 57.6222 143.912C55.9563 143.912 55.3259 142.899 54.2453 141.797C53.2548 141.797 50.0805 136.374 49.6077 135.901C48.347 134.641 47.2214 133.853 46.2533 132.548C45.5329 131.581 42.9214 130.5 42.0209 129.578C40.6702 128.228 38.5315 127.508 37.3833 126.653C34.7493 124.672 37.9912 123.277 33.6012 123.277C32.7007 123.277 30.2243 125.595 29.3688 125.82C27.5453 126.27 28.4458 122.107 25.5867 124.965C23.6956 126.855 23.583 127.305 20.9491 126.653C20.859 126.63 17.5496 123.682 17.1444 123.277C16.1313 122.265 16.7167 118.844 16.7167 117.382C16.7167 114.794 16.2889 113.961 15.0507 112.724C13.6099 111.104 13.8576 109.596 13.8576 107.166C13.8576 105.613 16.1313 104.78 17.212 104.24C17.5496 104.06 18.2475 98.7948 18.4727 98.3222C19.2831 96.7021 19.4182 94.1143 19.7334 92.8542C19.891 92.2016 25.3165 91.6616 25.6317 91.5941C26.4647 91.3915 27.1401 87.3186 27.3202 86.5536C27.973 83.9433 26.4196 83.0657 25.6317 81.5131C24.7312 79.6904 24.5736 79.8029 25.204 77.2826C25.6542 75.5049 26.3971 73.7948 26.8924 71.8146C27.14 70.8695 32.408 69.6769 33.2185 69.2718C35.2671 68.2367 36.7755 67.3366 39.1168 66.7516C42.201 65.9865 46.0507 66.6391 48.3695 65.4915C50.936 64.2088 50.9134 61.486 50.9134 59.1683C50.9134 57.0306 50.9585 54.3078 51.3412 52.8227C51.5888 51.8101 55.8437 48.7048 56.384 47.7822C56.4291 47.7147 60.1887 45.0369 60.5939 44.8569C61.7646 44.2718 63.2954 41.7291 63.9708 41.054C66.0645 38.9613 68.2482 39.8614 69.8691 41.4815C71.9853 43.5968 73.2235 41.2565 73.2235 39.3663C73.2235 37.7237 71.5576 36.2835 70.7021 35.1584C69.0587 32.9757 68.2482 31.1305 66.8975 28.4077C65.5017 26.5401 63.3855 25.505 61.4269 25.0324C58.9055 24.4023 58.1175 24.2223 56.384 23.3447C53.615 21.9496 52.1742 23.5698 52.1742 25.8875C52.1742 29.6004 51.3412 29.2628 50.9134 29.6904C50.5307 30.0729 48.5496 26.135 48.3695 25.4599C47.6266 22.5122 46.0732 23.2547 49.6302 20.4194C51.6113 19.6094 51.6564 16.5941 52.1742 14.5239C52.6694 12.5212 53.5249 11.3285 54.2678 9.86589C55.0558 8.29073 54.6506 5.83798 55.1233 3.9703C55.7537 1.40504 55.7987 1 58.928 1C59.6709 1 59.3557 6.22052 59.3557 6.91809C59.3557 9.46085 59.4908 11.396 60.2112 12.8137C61.2017 14.7714 65.2765 14.6139 66.5373 14.9289C68.6985 15.4689 70.9723 18.3717 71.5801 20.8245C71.5801 20.8245 76.8481 23.4347 77.4784 23.7498C78.6941 24.3573 80.1124 26.405 80.8328 27.1251C82.4537 28.7453 84.6374 28.9028 84.6374 25.865C84.6374 23.7498 88.7122 31.4905 88.8473 31.7606C90.5583 35.1809 94.0027 34.6409 94.7456 37.6562C95.2409 39.6364 96.8618 39.4563 96.8618 42.7417C96.8618 46.477 98.6403 46.0945 101.905 46.0945C103.998 46.0945 103.503 41.4365 104.449 45.2394C104.809 46.6571 106.115 49.0648 106.542 50.73C107.105 53.0252 111.405 51.405 113.296 52.8227C113.881 53.2727 113.814 57.5707 114.557 58.3132C115.975 59.7309 118.699 61.1035 120.027 62.0936C123.449 64.6589 123.224 62.4761 120.455 60.4059C118.947 59.2583 118.767 57.0756 118.767 54.9379C118.767 52.4626 120.072 52.0801 122.571 51.5851C125.746 50.955 126.601 53.0927 128.042 54.5103C129.753 56.2205 131.329 58.0657 133.512 59.1683C136.979 60.901 139.591 60.3834 142.788 59.5959C144.048 59.2808 142.9 53.3402 142.788 52.8227C142.405 50.9325 138.983 51.7876 137.7 52.4176C135.989 53.2727 135.404 54.3978 133.49 55.3429C131.149 56.5131 129.708 52.8452 129.28 51.9901C127.929 49.2898 126.308 49.3348 126.308 46.072C126.308 44.4293 129.775 46.6121 130.946 47.7597C132.702 49.5148 134.143 49.1323 135.178 48.6148C136.777 47.8272 134.751 44.8119 133.49 43.5743C132.252 42.3366 130.879 41.5491 128.852 41.0315C124.507 39.9514 126.489 37.3186 127.592 35.1359C128.605 33.0882 129.348 31.6481 130.136 30.0954C131.081 28.2052 132.229 27.1251 133.918 26.7201C135.561 26.315 134.841 30.1404 136.034 31.3555C138.038 33.3582 138.24 33.1107 140.672 34.3258C142.563 35.2709 144.971 36.7786 146.998 37.2961C149.609 37.9487 148.686 40.1539 148.686 43.1917C148.686 45.6445 150.149 46.8146 152.468 47.3996C155.012 48.0297 154.449 49.4248 155.012 51.6301C155.147 52.1476 152.04 50.1674 152.04 52.8677C152.04 53.9253 154.224 57.3681 154.584 58.7858C155.417 62.0936 154.719 65.829 156.25 68.8893C157.556 71.522 156.588 73.0072 158.794 75.2124C160.235 76.6526 163.432 76.495 165.12 76.9001C167.507 77.4851 169.623 78.8353 171.019 80.703C172.257 82.3681 172.459 82.9757 171.874 85.3384C171.671 86.171 175.161 87.3861 175.656 87.8812C177.795 90.0414 179.303 90.5365 182.41 92.0891C185.269 93.5068 187.543 94.6319 190.852 94.6319C192.676 94.6319 192.181 90.8065 193.824 89.9739C194.274 89.7489 195.76 94.3168 195.918 94.6319C196.368 95.532 201.433 96.117 202.244 96.3195C204.292 96.8371 207.467 96.3645 208.998 96.7471C210.078 97.0171 208.052 100.955 211.969 100.955C214.671 100.955 214.356 99.7399 214.896 97.5797C215.346 95.802 214.986 92.9667 215.324 91.6841C215.661 90.3564 218.655 88.2187 219.961 87.9037C222.91 87.1611 224.937 88.2412 222.505 85.7885C221.244 84.5284 220.929 82.2331 220.389 81.153C219.353 79.0603 217.642 78.9703 217.035 76.495C216.292 73.5473 217.44 72.3096 219.151 71.027C220.997 69.6544 219.218 66.9766 222.933 69.7669C225.769 71.9046 223.451 67.7867 222.933 67.2466C221.019 65.3339 221.334 64.0963 222.077 62.5887C222.505 61.7111 226.625 63.7363 227.12 63.8488C229.281 64.3888 229.236 62.1611 229.236 66.3915C229.236 68.6643 230.385 70.0594 230.925 70.5995C231.51 71.1845 229.462 71.9271 229.664 72.7147C229.709 72.8497 237.228 74.3798 238.106 74.8299C239.57 75.55 238.917 78.6103 238.917 80.2979C238.917 80.3429 242.902 82.9082 243.149 83.2232C243.96 84.3258 242.902 88.4662 242.722 89.1413C242.136 91.4815 243.149 91.2565 244.905 91.459C245.108 92.4717 246.369 95.1719 246.931 96.3195C247.764 96.0495 248.62 95.757 249.475 95.4644C250.466 95.1269 251.366 98.2322 253.685 98.8173C257.085 99.6724 252.92 101.788 251.164 101.788C249.003 101.788 249.25 105.14 251.974 105.14C254.901 105.14 255.779 104.555 255.779 107.683C255.779 109.933 253.955 110.316 252.402 111.486C250.691 112.769 249.003 115.874 248.62 117.382C248.147 119.317 248.192 121.522 248.192 123.705V130.455V136.779C248.192 138.871 250.308 140.581 250.308 142.674C250.308 144.159 251.997 147.782 252.83 149.83C252.875 149.942 252.92 150.077 252.965 150.19C251.209 150.167 249.475 150.122 247.719 150.122C249.475 150.122 251.231 150.145 252.965 150.167C253.708 151.99 254.518 153.655 254.518 156.581C254.518 159.033 254.383 160.631 253.663 162.049C252.357 164.659 250.736 163.871 250.736 167.089C250.736 169.474 250.736 171.86 250.736 174.245C250.736 177.058 250.511 178.475 249.475 180.568C248.507 182.503 248.282 183.606 247.787 186.059C247.382 188.106 247.787 190.694 247.787 192.809C247.787 194.609 249.025 196.86 249.475 199.132C250.038 202.013 251.524 202.058 254.518 202.058C257.783 202.058 260.529 201.63 263.793 201.63C266.743 201.63 268.679 201.878 270.119 203.318C272.191 205.388 275.117 205.253 277.684 206.288C280.025 207.233 281.308 208.651 283.582 209.213C286.126 209.843 288.737 210.293 291.169 210.901C293.308 211.441 294.523 212.476 296.639 213.016C299.116 213.646 301.322 213.466 302.965 214.276C305.262 215.424 305.645 215.964 308.459 215.964C309.134 216.302 309.854 216.504 310.552 216.774C313.276 217.877 314.56 216.144 316.451 218.034C317.081 218.664 321.606 219.969 322.349 220.149C323.542 220.442 326.109 221.387 327.009 221.837C328.72 222.692 329.26 223.097 332.052 223.097C335.316 223.097 336.802 222.962 338.378 221.41C339.594 220.194 342.228 220.554 344.704 220.554C347.383 220.554 350.04 220.554 352.719 220.554C355.578 220.554 356.343 220.037 357.356 218.012C358.617 215.469 357.086 214.524 359.878 215.919C362.151 217.044 360.936 218.844 364.11 218.844C365.843 218.844 368.095 220.532 370.436 220.532C372.957 220.532 373.408 218.394 375.074 217.562C377.392 216.392 379.554 218.372 381.4 218.822C383.764 219.407 385.384 221.365 388.154 221.365C390.72 221.365 393.849 221.32 395.74 220.937C398.892 220.307 401.413 220.037 404.565 219.249C407.132 218.619 409.135 217.247 411.319 216.707C415.777 215.581 421.9 216.279 426.087 216.279C429.464 216.279 436.803 215.806 440.18 215.806C440.991 215.356 441.351 214.546 442.544 213.331C442.702 213.174 442.882 213.084 443.084 213.084C444.458 212.994 446.574 216.009 447.609 216.279C451.009 217.134 454.994 217.134 458.551 217.134C461.207 217.134 463.594 219.654 465.304 220.509C467.353 221.522 468.569 220.802 469.942 222.625C471.068 224.132 473.724 223.367 474.985 223.052C476.763 222.602 479.983 222.332 482.144 221.792C484.125 221.297 483.157 218.687 485.949 217.989C489.393 217.134 489.303 218.642 489.303 221.365C489.303 223.75 490.901 224.425 493.108 223.885C494.008 223.66 496.057 222.647 498.578 222.647C500.537 222.647 501.077 219.677 504.049 219.677C507.201 219.677 506.323 221.41 507.831 218.417C508.034 218.012 513.482 218.417 514.157 218.417C516.678 218.417 518.817 218.192 520.911 217.157C523.567 215.829 526.697 215.919 529.781 215.919H539.461C541.713 215.919 544.594 215.896 546.215 215.491C548.466 214.929 549.097 213.691 552.541 215.064C554.972 216.032 555.423 216.482 557.584 217.584C560.083 218.844 560.128 217.967 560.128 221.387C560.128 223.03 563.167 222.737 564.338 223.907C566.004 225.572 567.039 225.1 568.57 224.335C571.812 222.715 570.664 226.045 569.831 226.878C569.178 227.53 574.694 228.565 575.729 228.565C575.729 230.163 581.267 231.311 582.055 231.491C584.914 232.211 587.098 231.108 588.809 230.253C590.362 229.465 589.282 233.741 590.047 235.293C590.137 235.496 596.351 235.698 597.206 236.554C599.66 239.006 600.606 238.556 599.75 242.022C599.03 244.924 599.75 245.712 601.844 246.23C605.018 247.017 604.095 247.22 604.816 250.032C605.063 251.023 607.787 249.582 607.787 253.385C607.787 255.23 608.598 257.481 608.598 259.731C608.598 262.566 606.617 262.251 603.96 262.251C601.844 262.251 601.349 263.871 599.323 264.366C596.644 265.041 595.383 266.167 594.28 263.939C593.379 262.139 591.398 261.104 590.047 259.731C588.584 258.268 588.336 259.371 587.526 260.158C586.13 261.554 584.689 257.323 583.294 255.928C582.145 254.78 581.065 255.86 579.084 256.356C575.684 257.211 575.301 256.873 575.301 260.586C575.301 262.026 575.887 264.996 576.157 266.054C576.607 267.832 579.084 266.144 579.084 269.834C579.084 271.927 577.755 270.194 580.772 273.21C581.402 273.84 580.772 278.52 580.772 279.533C580.772 282.211 586.288 280.32 583.294 283.313C581.538 285.068 581.853 286.846 579.084 287.544C576.697 288.151 577.508 287.364 578.656 289.659C578.093 290.356 577.53 291.054 576.967 291.752C576.292 292.607 576.179 297.152 575.729 298.075C574.784 299.942 574.536 300.64 574.041 303.16C573.613 305.32 574.041 307.413 574.041 309.911C574.041 313.579 575.121 316.009 573.185 317.922C573.163 317.944 568.525 314.411 568.142 314.119C566.094 312.589 564.023 316.054 563.505 317.089C562.807 318.484 563.505 322.287 563.505 323.84C563.505 324.807 565.306 327.755 565.598 328.88C565.666 329.173 563.077 330.185 563.077 332.683C563.077 335.068 561.254 335.046 559.272 336.036C557.764 336.779 553.824 336.036 552.113 336.036C549.682 336.036 547.116 336.149 544.954 335.608C542.14 334.911 541.6 333.898 542.433 337.296C542.838 338.916 543.288 340.446 543.288 342.764C543.288 346.455 540.722 344.024 539.484 342.764C537.525 340.784 537.278 340.266 535.274 340.672C533.563 341.009 534.013 344.002 534.013 345.712C534.013 347.962 534.869 348.66 534.869 351.18V357.571C534.869 358.426 534.869 359.281 534.846 360.136C534.441 358.876 534.036 357.638 533.63 356.401C534.036 357.638 534.441 358.898 534.846 360.136C534.824 361.441 534.734 362.746 534.441 363.916C534.126 365.221 533.901 368.147 533.585 369.384C533.023 371.635 529.938 372.67 528.543 372.31C528.498 372.31 524.715 366.797 524.333 366.414C522.352 364.434 521.586 363.871 522.644 361.779C523.342 360.383 519.673 362.274 518.434 361.351C516.859 360.158 514.36 358.268 512.536 357.548C510.465 356.716 509.97 355.275 509.159 354.195C509.159 356.716 509.159 359.258 509.159 361.779C509.159 364.771 510.127 364.524 511.275 366.819C512.469 369.204 511.253 371.477 509.159 371.477C505.782 371.477 505.377 370.644 503.689 368.934C501.437 366.684 500.627 367.629 499.906 364.726C499.389 362.611 498.691 361.171 498.218 358.808C497.768 356.558 495.674 361.306 495.674 362.611C495.674 364.726 495.674 366.819 495.674 368.934C495.674 371.185 495.674 373.435 495.674 375.685C495.674 375.955 489.911 377.463 489.348 377.8C487.705 378.79 486.962 380.59 485.994 381.581C484.665 382.908 480.32 379.398 479.668 379.06C477.934 378.183 475.976 378.205 473.342 378.205C470.167 378.205 467.871 377.868 465.327 377.35C462.648 376.81 460.487 376.72 459.001 378.205C458.641 378.565 460.689 381.648 460.689 383.246C460.689 385.744 460.937 387.611 459.429 389.141C458.145 390.424 457.65 391.729 458.168 393.799C458.483 395.059 459.023 396.275 459.023 397.58C459.023 400.415 453.958 395.059 451.437 393.799C448.375 392.269 448.938 395.419 448.082 397.152C446.934 399.447 445.313 398.525 444.705 400.955C444.3 402.575 445.471 405.298 445.561 405.59C445.966 407.188 441.328 405.68 440.923 407.278C440.473 409.123 440.923 411.689 440.923 413.601C440.923 416.009 441.779 417.629 441.779 420.352C441.779 423.165 440.383 423.84 438.807 425.392C437.817 426.383 438.379 430.275 438.379 431.738C438.379 432.481 432.841 432.143 432.053 432.143C430.5 432.143 430.793 432.301 430.793 435.518C430.793 438.511 431.085 438.894 434.169 438.894C437.029 438.894 436.691 439.974 436.691 442.674C436.691 445.847 435.588 445.352 433.336 444.789C430.95 444.182 429.599 443.417 430.365 446.477C430.905 448.615 432.391 451.158 432.909 453.228C433.381 455.095 433.607 457.121 434.169 458.268C434.755 459.461 436.668 459.213 437.952 459.528C439.753 459.978 437.974 463.354 438.807 464.996C439.527 466.459 441.554 465.829 442.184 468.372C442.769 470.667 443.85 472.422 443.85 475.527C443.85 476.608 445.313 476.743 446.394 478.88C447.272 480.635 446.822 483.538 446.822 485.631C446.822 486.014 450.761 488.736 451.031 489.006C452.427 490.401 450.176 492.922 450.176 494.902C450.176 496.23 453.238 495.735 453.553 497.017C453.553 499.875 447.542 498.187 452.697 502.058C453.598 502.733 453.125 507.143 453.125 508.381C453.125 510.631 453.125 512.881 453.125 515.131C453.125 517.472 453.598 519.452 454.386 521.027C455.264 522.782 455.466 524.29 457.312 525.685C458.978 526.923 459.429 529.465 460.689 530.725C462.018 532.053 464.336 532.481 465.732 532.841C468.726 533.583 465.395 530.05 464.877 529.038C463.909 527.125 464.021 525.505 464.021 523.142C464.021 520.712 463.864 519.047 463.166 517.674C462.4 516.144 461.905 514.006 461.905 511.779C461.905 509.663 461.905 507.571 461.905 505.455C461.905 503.79 464.066 501.023 464.449 499.537C465.057 497.085 466.768 500.752 466.993 501.653C467.083 502.058 471.248 503.813 471.631 504.195C471.923 504.488 473.657 508.876 473.747 509.236C474.039 510.428 475.57 513.174 476.268 513.871C477.124 514.726 478.767 518.867 479.24 519.789C479.915 521.162 479.375 524.537 479.668 525.685C480.185 527.8 481.761 528.228 481.761 531.581C481.761 534.551 482.549 534.393 483.45 536.216C484.688 538.691 483.135 539.704 485.138 541.707C487.164 543.732 487.097 544.879 490.181 545.487C490.451 545.532 490.744 545.487 491.036 545.487C492.252 545.487 493.67 546.432 493.963 547.602C494.436 549.492 495.764 544.114 496.935 542.562C497.295 542.067 504.499 544.497 505.377 544.654C508.934 545.239 509.047 542.989 509.587 540.874C509.97 539.344 511.861 537.724 512.941 536.644C513.819 535.766 513.639 535.473 515.058 535.834C516.971 536.306 515.013 531.828 515.485 529.915C516.003 527.845 519.898 530.028 521.811 529.06C522.217 528.858 521.811 523.412 521.811 522.737C521.811 520.442 521.384 519.294 521.384 516.842C521.384 515.019 519.92 512.836 518.862 511.801C517.917 510.856 517.466 508.583 516.746 507.143C515.598 504.825 515.193 503.948 514.63 501.675C514.202 499.987 513.121 498.187 512.536 497.04C511.996 495.96 511.838 496.342 511.275 495.779C510.96 495.149 510.983 494.362 510.848 493.664C510.487 491.864 514.18 492.022 515.485 490.739C516.768 489.456 516.341 486.644 516.341 484.821C516.341 482.166 515.53 480.613 518.457 480.613C521.519 480.613 521.384 480.973 521.384 483.966C521.384 487.274 523.455 485.699 524.355 484.821C524.896 484.281 525.211 479.713 525.593 478.925C526.854 476.383 526.111 476.383 529.398 475.572C531.784 474.987 532.865 473.412 534.441 472.602C536.152 471.747 538.651 472.4 539.912 471.747C541.352 471.027 540.767 467.292 540.767 465.851C540.767 463.511 539.056 462.431 538.651 460.811C538.201 459.011 538.223 456.941 538.223 454.893C538.223 452.778 538.223 450.685 538.223 448.57C538.223 446.23 536.985 445.599 536.985 443.102C536.985 440.671 536.872 439.096 536.129 437.634C535.544 436.441 539.484 436.846 539.484 435.518C539.484 433.088 539.664 431.356 540.339 430.05C541.69 427.35 542.883 433.538 542.883 434.258C542.883 435.834 544.954 436.756 545.405 438.489C545.652 439.501 551.303 442.382 552.564 443.102C553.081 443.349 553.577 443.687 554.275 444.384C554.32 444.429 556.571 440.491 556.819 440.154C558.079 438.466 559.34 439.636 559.34 436.374C559.34 434.461 563.122 434.708 563.978 432.998C564.878 431.176 565.328 430.478 568.21 430.478C568.368 430.478 571.024 433.493 572.42 433.831C573.5 434.101 573.523 438.646 573.681 439.299C574.266 441.617 575.774 441.527 577.035 441.842C578.948 442.314 576.607 437.926 576.607 435.946C576.607 432.908 577.08 432.031 579.151 430.478C579.781 430.005 580.367 429.825 580.907 429.848C582.483 429.938 583.519 431.896 583.789 432.976C584.239 434.821 583.789 437.386 583.789 439.299C583.789 441.459 583.811 443.642 584.216 445.217C584.689 447.152 585.905 446.86 585.905 449.852C585.905 452.643 586.445 454.33 588.449 455.32C589.957 456.086 588.539 458.741 588.877 460.406C589.304 462.521 589.282 465.064 589.282 467.157C589.282 469.879 590.43 472.377 591.398 474.312C592.366 476.248 592.591 477.71 593.086 480.208C593.357 481.536 595.18 483.133 596.013 483.988C597.386 485.361 597.251 487.071 596.869 488.646C596.238 491.212 595.63 491.617 597.296 493.282C599.277 495.262 599.84 495.779 599.84 499.605V505.951C599.84 506.513 594.37 504.443 594.37 508.043C594.37 510.653 594.46 512.431 595.225 513.939C596.193 515.874 596.036 517.787 596.036 520.284C596.036 522.49 596.801 524.762 597.724 526.608C598.67 528.52 598.985 529.87 598.985 532.503C598.985 536.014 598.715 539.366 598.129 542.202C597.431 545.735 598.692 547.805 601.101 550.212C603.465 552.575 604.591 551.99 605.311 554.848C605.716 556.491 608.868 556.333 609.949 557.391C610.556 557.998 609.521 563.084 609.521 564.546C609.521 566.617 611.457 569.339 612.065 571.702C612.74 574.38 615.689 577.868 617.535 579.713C619.021 581.198 617.693 585.676 619.224 587.724C620.259 589.119 619.651 592.674 619.651 594.474C619.651 597.287 619.404 600.212 620.079 602.89C620.665 605.208 620.507 607.908 620.507 610.473C620.507 612.679 624.199 614.411 623.028 616.819C621.858 619.182 621.7 618.957 623.028 622.287C623.929 624.537 623.861 626.9 624.289 629.443C624.717 632.076 625.392 633.516 627.261 634.911C627.126 635.608 626.968 636.329 626.833 637.026C626.338 639.546 627.238 641.279 627.643 642.922C628.251 645.307 627.711 648.502 628.071 650.932C628.364 653.003 629.174 655.208 629.76 656.401C630.593 658.043 631.088 660.833 631.448 662.319C632.056 664.771 632.709 665.536 632.709 668.214C632.709 671.95 629.129 667.472 628.049 666.954C626.203 666.031 626.81 671.297 626.81 672.85C626.81 674.29 629.602 676.788 630.593 678.745C631.471 680.478 630.548 684.438 631.02 686.329C631.516 688.264 631.808 690.289 632.281 692.224C633.001 695.104 633.857 697.085 635.208 699.807C636.221 701.81 635.771 706.018 635.208 708.246C634.667 710.428 634.555 713.376 633.542 715.401C632.236 718.034 632.686 721.77 632.686 725.1C632.686 727.913 631.831 731.018 631.831 734.371C631.831 738.061 632.686 741.369 632.686 744.902C632.686 747.85 634.082 750.527 634.78 753.34C634.915 753.903 635.073 754.465 635.208 755.028C636.153 758.808 637.752 762.364 637.752 766.437C637.752 769.384 638.044 772.557 638.607 775.257C639.26 778.498 640.498 783.223 641.534 785.811C642.772 789.119 645.654 789.974 644.866 793.079ZM245.265 91.144C244.905 90.784 244.838 90.964 244.928 91.369C245.288 91.414 245.693 91.459 246.121 91.5716C246.414 91.6391 245.468 91.3465 245.265 91.144ZM527.259 727.328C527.259 728.048 526.967 728.723 526.832 729.42C527.214 729.42 527.71 724.672 528.092 723.097C528.408 721.86 529.848 719.947 530.209 718.462C530.794 716.144 531.875 714.794 531.875 712.139C531.875 709.888 532.302 708.133 532.302 705.815C532.302 702.913 533.09 701.45 530.209 700.73C529.623 700.572 529.15 700.527 528.768 700.55C527.62 700.662 527.237 701.585 526.809 703.25C526.359 705.095 526.809 707.661 526.809 709.573C526.809 712.229 527.192 713.264 528.07 715.041C528.768 716.437 528.07 720.262 528.07 721.815C528.115 724.47 527.259 724.852 527.259 727.328ZM596.801 890.469C594.73 890.469 591.646 890.761 594.28 893.394C596.238 895.352 595.383 896.252 595.946 898.48C596.013 898.345 597.589 890.469 596.801 890.469ZM603.15 885.113C603.375 885.946 603.69 886.666 603.96 887.431C603.938 886.734 603.577 885.923 603.15 885.113ZM604.883 893.664C604.996 895.374 605.266 896.837 605.671 898.48C606.009 899.785 606.054 900.055 606.527 901C606.391 900.302 606.234 899.605 606.099 898.907C605.604 896.477 605.356 895.599 604.883 893.664ZM604.816 891.752C604.816 889.974 604.41 888.714 603.96 887.521C603.96 889.794 604.388 891.752 604.816 893.417C604.838 893.484 604.861 893.507 604.883 893.597C604.838 893.012 604.816 892.404 604.816 891.752ZM346.01 710.023C345.132 709.146 344.546 708.853 344.119 708.876C343.173 708.921 342.858 710.496 341.35 710.879C342.633 711.194 346.032 712.566 346.01 712.566C351.593 710.338 347.158 711.171 346.01 710.023ZM352.336 694.002C351.413 694.002 350.242 693.912 349.139 693.979C348.036 694.047 347.045 694.249 346.437 694.857C345.289 696.005 345.064 698.345 343.894 699.515C343.016 700.392 340.607 702.418 340.922 703.723C341.822 707.323 342.273 704.398 345.154 705.838C346.483 706.491 350.58 708.111 350.197 709.618C350.94 705.906 353.551 709.011 353.551 705.41C353.551 703.295 353.551 701.202 353.551 699.087C353.574 697.22 354.43 694.002 352.336 694.002ZM366.541 694.834C366.451 694.834 366.339 694.834 366.226 694.857C365.506 695.037 361.453 694.969 361.183 696.117C361.093 696.5 359.315 701.045 359.09 701.158C357.379 702.013 354.565 705.095 356.118 706.648C358.662 707.166 359.067 706.198 360.756 704.533C362.241 703.048 364.56 702.035 365.416 700.302C366.181 698.772 367.802 694.924 366.541 694.834ZM355.69 689.794C354.362 689.141 353.034 685.878 352.223 686.104C352.111 686.126 351.998 686.216 351.908 686.419C351.728 686.779 349.207 690.154 349.364 690.221C350.04 690.559 354.925 692.629 354.835 692.742C355.217 691.797 356.613 690.266 355.69 689.794ZM341.8 712.971C341.395 712.994 340.899 713.219 340.111 713.421C339.008 713.691 335.541 716.594 337.995 717.202C340.201 717.742 341.98 716.572 343.466 715.086C342.79 713.354 342.475 712.904 341.8 712.971ZM351.075 658.606C350.377 660.001 349.499 661.824 348.103 663.646C346.708 665.491 346.1 666.864 345.177 668.732C344.209 670.667 343.038 670.869 342.205 672.512C341.575 673.795 340.539 675.055 340.111 676.743C339.616 678.678 338.355 679.825 338.851 681.783C339.008 682.413 340.292 687.971 339.706 687.679C337.973 690.559 339.414 691.707 340.562 694.002C341.102 695.082 342.228 698.885 342.228 695.689C342.228 692.787 342.61 692.809 343.916 691.054C344.817 689.861 346.302 687.971 346.888 686.824C347.653 685.316 348.486 683.966 349.814 682.616C351.413 681.018 353.597 680.028 353.597 677.53C353.597 674.582 354.249 673.727 354.857 671.207C355.285 669.474 355.285 667.539 355.285 665.311C355.285 663.016 355.217 661.599 356.546 660.271C357.491 659.326 359.697 658.021 359.09 655.613C358.774 654.353 357.851 653.745 356.748 653.813C355.893 653.858 354.902 654.308 354.002 655.185C353.034 656.198 351.818 657.076 351.075 658.606ZM358.234 697.805C358.797 697.242 359.247 696.545 359.72 695.914C359.315 696.432 358.572 697.377 358.234 697.805ZM337.995 691.076C337.995 688.399 336.352 687.769 335.451 685.991C334.641 684.371 334.078 683.223 332.435 683.336C332.209 683.358 331.962 683.403 331.669 683.471C329.823 683.943 329.17 685.563 327.459 685.991C326.086 686.329 323.857 689.164 323.227 689.794C321.966 691.054 321.561 692.314 321.133 694.002C320.773 695.442 318.814 698.232 318.162 699.492C317.103 701.585 316.045 702.395 316.045 704.96C316.045 707.076 316.045 709.168 316.045 711.284C316.045 713.534 319.422 713.399 321.133 713.826C323.407 714.389 322.799 710.338 322.799 708.741C322.799 706.108 322.326 704.803 321.561 703.273C321.291 702.733 321.651 702.08 321.876 701.473C321.719 700.887 321.696 700.617 321.966 701.158C321.944 701.248 321.921 701.36 321.876 701.473C322.214 702.665 323.204 705.365 324.082 706.243C326.221 708.381 323.092 709.146 326.626 710.023C328.585 710.518 328.562 706.401 329.981 704.983C331.376 703.588 332.862 703.408 334.213 701.608C335.744 699.56 335.204 698.39 337.14 697.4C338.693 696.612 337.995 692.584 337.995 691.076ZM339.684 704.128C338.378 705.433 338.828 711.441 338.828 709.596C339.706 708.493 340.989 703.813 340.156 703.813C340.044 703.813 339.909 703.925 339.684 704.128ZM480.883 613.489C480.343 611.351 478.362 610.271 478.362 607.593C478.362 604.555 476.696 604.713 476.246 602.935C475.975 601.855 475.638 599.042 474.152 598.3C473.184 597.805 469.92 594.857 469.92 594.092C469.199 593.957 467.893 593.214 467.286 593.282C467.083 593.304 466.97 593.439 466.97 593.687C466.97 595.532 467.083 598.21 466.115 599.155C464.922 600.347 464.111 601.855 463.143 603.79C462.535 605.028 459.361 606.491 459.361 607.593C459.361 609.708 459.361 611.801 459.361 613.916C459.361 615.807 459.001 618.214 459.789 619.812C460.667 621.59 461.387 623.547 462.716 624.897C463.864 626.045 464.269 627.283 465.687 628.678C467.015 630.005 467.961 630.365 470.73 630.365C472.846 630.365 474.94 630.365 477.056 630.365C478.519 630.365 481.941 630.973 482.954 629.938C484.373 628.52 484.643 628.385 484.643 625.28C484.643 622.782 484.688 619.992 484.215 618.124C483.63 615.559 481.288 615.154 480.883 613.489ZM432.841 642.157C432.121 639.254 431.4 637.611 429.87 634.573C429.037 632.886 427.618 631.918 426.087 630.365C425.029 629.308 423.949 628.205 422.733 626.99C421.652 625.91 419.761 623.525 418.501 623.21C416.047 622.602 414.786 622.4 412.175 621.094C412.039 621.027 407.807 619.272 406.862 619.294C406.726 619.294 406.659 619.317 406.681 619.407C407.109 621.117 407.537 622.355 407.537 624.897C407.537 627.508 408.347 627.778 409.225 629.533C410.058 631.198 409.158 633.628 410.081 635.428C410.959 637.161 412.084 637.881 413.435 639.231C413.976 639.771 418.073 642.787 418.073 643.012C417.803 643.709 417.217 644.362 417.217 645.127C417.217 647.31 416.812 649.357 416.812 651.023C416.812 653.273 416.812 655.523 416.812 657.773C416.812 660.316 416.047 661.891 414.268 663.669C412.827 665.131 411.724 666.842 411.724 669.159C411.724 671.927 411.184 673.93 409.203 675.91C408.145 676.968 407.582 678.093 407.087 680.118C406.884 680.95 405.038 684.956 407.514 684.348C409.676 683.808 408.595 685.203 410.486 684.753C412.49 684.258 416.519 681.468 417.623 679.285C418.388 677.733 421.54 674.807 422.71 674.245C424.241 673.48 424.827 672.107 426.493 671.275C428.316 670.352 428.744 667.787 430.275 666.639C431.716 665.559 431.558 664.096 432.819 662.836C435.002 660.653 436.601 657.976 436.601 653.588C436.601 651.675 437.051 649.11 436.601 647.265C435.993 644.722 433.291 643.979 432.841 642.157ZM464.021 600.01C464.719 598.615 465.057 596.995 464.449 594.542C464.156 593.417 463.616 589.884 461.905 589.884C459.429 589.884 459.046 589.209 458.123 587.364C458.01 587.139 455.196 583.156 454.476 583.246C454.386 583.268 454.341 583.358 454.341 583.561C452.652 583.898 450.108 584.393 450.108 586.103C450.108 587.499 450.424 590.626 451.369 591.572C452.45 592.652 453.823 594.024 455.174 595.374C456.322 596.522 456.93 597.985 458.528 599.582C459.249 600.28 463.076 601.923 464.021 600.01ZM375.501 582.706C374.218 581.423 373.633 580.433 372.53 579.353C371.382 578.205 370.549 576.09 369.603 575.122C368.68 574.2 368.027 573.525 367.622 573.525C367.217 573.525 367.059 574.2 367.059 575.978C367.059 578.903 364.875 577.553 366.204 580.208C367.284 582.368 367.352 583.538 367.892 585.676C368.567 588.376 367.825 590.041 370.008 591.144C372.057 592.157 372.552 592.832 375.479 592.832C376.987 592.832 373.79 587.364 373.79 587.364C371.944 585.518 371.989 585.968 370.864 583.133C370.774 583.133 375.434 584.911 376.762 585.248C378.991 585.811 375.952 583.156 375.501 582.706ZM359.9 695.689C359.833 695.757 359.788 695.847 359.72 695.914C359.99 695.577 360.125 695.419 359.9 695.689ZM399.522 618.529C400.468 617.764 401.278 616.437 402.494 616.437C403.214 616.437 408.1 616.077 407.965 615.581C407.469 613.646 406.389 612.881 405.421 610.923C404.475 609.011 403.372 609.303 402.066 607.571C400.918 606.041 399.41 606.018 397.429 605.028C397.136 604.893 392.791 602.598 392.769 602.508C392.228 600.302 391.193 600.077 389.842 598.705C389.032 597.895 388.086 595.96 386.87 595.352C385.61 594.722 382.931 591.932 382.908 592.112C382.908 592.134 382.953 592.224 383.088 592.404C384.304 594.024 385.204 595.014 385.204 597.445C385.204 599.357 384.754 601.923 385.204 603.768C385.632 605.455 386.398 606.671 387.726 607.998C388.131 608.403 390.54 611.104 391.53 611.351C393.467 611.824 393.849 612.859 395.313 614.321C396.438 615.446 398.352 617.562 399.522 618.529ZM409.653 650.167C409.653 648.052 409.653 645.959 409.653 643.844C409.653 640.379 408.573 639.636 405.421 638.376C405.691 638.916 405.421 643.147 405.421 645.127C405.421 647.58 405.466 649.245 404.565 651.023C403.71 652.733 402.314 654.578 401.211 656.063C400.31 657.278 400.535 660.788 399.95 661.981C398.847 664.209 396.753 664.704 396.168 667.022C395.718 668.867 396.168 671.432 396.168 673.345C396.168 675.617 396.123 677.373 396.596 679.24C397.271 681.918 398.734 678.633 399.117 677.148C399.725 674.762 399.477 673.052 400.378 671.23C401.256 669.474 402.089 667.832 402.922 666.189C403.912 664.209 404.588 663.421 404.588 660.721C404.588 658.696 406.997 657.188 408.392 656.491C409.991 655.68 409.653 651.788 409.653 650.167ZM373.88 682.211C373.498 682.188 373.025 682.548 372.552 683.471C371.809 684.933 370.594 685.743 369.626 687.679C369.018 688.894 366.676 691.189 365.866 691.909C369.513 693.349 369.175 691.099 371.314 688.939C372.53 687.724 373.835 686.824 374.668 685.136C375.186 684.101 374.713 682.278 373.88 682.211ZM403.35 632.863C403.35 637.386 405.848 634.528 406.704 636.239C408.302 633.583 408.28 634.753 407.559 633.268C407.064 632.301 405.984 629.06 405.015 629.06C402.291 629.083 403.35 629.938 403.35 632.863Z" stroke="black" stroke-miterlimit="10"/>
</svg>
